name analog
datacolumns 19
datarows 86
range 0.778 0.8205
endheader
time	ground_force_vx	ground_force_vy	ground_force_vz	ground_force_px	ground_force_py	ground_force_pz	l_ground_force_vx	l_ground_force_vy	l_ground_force_vz	l_ground_force_px	l_ground_force_py	l_ground_force_pz	ground_torque_x	ground_torque_y	ground_torque_z	l_ground_torque_x	l_ground_torque_y	l_ground_torque_z
0.778	-0.0	-0.0	-0.0	19.86679077148437	-2.360008001327514	-846.4647827148438	-0.0	-0.0	-0.0	-0.0	-0.0	-0.0	-0.0	-0.0	-0.0	-0.0	-0.0	-0.0
0.7785	-0.0	-0.0	-0.0	20.599702835083008	-1.6393365859985352	-844.3146362304688	-0.0	-0.0	-0.0	-0.0	-0.0	-0.0	-0.0	-0.0	-0.0	-0.0	-0.0	-0.0
0.779	-0.0	-0.0	-0.0	22.0620231628418	-1.2126997709274292	-841.841796875	-0.0	-0.0	-0.0	-0.0	-0.0	-0.0	-0.0	-0.0	-0.0	-0.0	-0.0	-0.0
0.7795	-0.0	-0.0	-0.0	23.479063034057617	-0.472581535577774	-839.048828125	-0.0	-0.0	-0.0	-0.0	-0.0	-0.0	-0.0	-0.0	-0.0	-0.0	-0.0	-0.0
0.78	-0.0	-0.0	-0.0	23.748367309570312	-0.1343571245670318	-836.8909912109375	-0.0	-0.0	-0.0	-0.0	-0.0	-0.0	-0.0	-0.0	-0.0	-0.0	-0.0	-0.0
0.7805	-0.0	-0.0	-0.0	24.096176147460938	0.0803959444165229	-830.785400390625	-0.0	-0.0	-0.0	-0.0	-0.0	-0.0	-0.0	-0.0	-0.0	-0.0	-0.0	-0.0
0.781	-0.0	-0.0	-0.0	24.925413131713867	0.4100027680397033	-825.063720703125	-0.0	-0.0	-0.0	-0.0	-0.0	-0.0	-0.0	-0.0	-0.0	-0.0	-0.0	-0.0
0.7815	-0.0	-0.0	-0.0	25.184059143066406	0.7755017876625061	-822.378173828125	-0.0	-0.0	-0.0	-0.0	-0.0	-0.0	-0.0	-0.0	-0.0	-0.0	-0.0	-0.0
0.782	-0.0	-0.0	-0.0	25.62209892272949	0.8208402395248413	-818.671142578125	-0.0	-0.0	-0.0	-0.0	-0.0	-0.0	-0.0	-0.0	-0.0	-0.0	-0.0	-0.0
0.7825	-0.0	-0.0	-0.0	25.96778678894043	1.0240051746368408	-816.1234741210938	-0.0	-0.0	-0.0	-0.0	-0.0	-0.0	-0.0	-0.0	-0.0	-0.0	-0.0	-0.0
0.783	-0.0	-0.0	-0.0	24.86056327819824	1.0333784818649292	-817.1920166015625	-0.0	-0.0	-0.0	-0.0	-0.0	-0.0	-0.0	-0.0	-0.0	-0.0	-0.0	-0.0
0.7835	-0.0	-0.0	-0.0	24.98888397216797	1.8024734258651731	-818.1087036132812	-0.0	-0.0	-0.0	-0.0	-0.0	-0.0	-0.0	-0.0	-0.0	-0.0	-0.0	-0.0
0.784	-0.0	-0.0	-0.0	24.20241355895996	1.851523876190185	-819.1128540039062	-0.0	-0.0	-0.0	-0.0	-0.0	-0.0	-0.0	-0.0	-0.0	-0.0	-0.0	-0.0
0.7845	-0.0	-0.0	-0.0	24.51693344116211	2.4224634170532227	-822.1619873046875	-0.0	-0.0	-0.0	-0.0	-0.0	-0.0	-0.0	-0.0	-0.0	-0.0	-0.0	-0.0
0.785	-0.0	-0.0	-0.0	25.16787338256836	3.077644109725952	-825.1944580078125	-0.0	-0.0	-0.0	-0.0	-0.0	-0.0	-0.0	-0.0	-0.0	-0.0	-0.0	-0.0
0.7855	-0.0	-0.0	-0.0	25.55582046508789	3.47135591506958	-829.2852783203125	-0.0	-0.0	-0.0	-0.0	-0.0	-0.0	-0.0	-0.0	-0.0	-0.0	-0.0	-0.0
0.786	-0.0	-0.0	-0.0	26.66300773620605	3.3978796005249023	-835.72705078125	-0.0	-0.0	-0.0	-0.0	-0.0	-0.0	-0.0	-0.0	-0.0	-0.0	-0.0	-0.0
0.7865	-0.0	-0.0	-0.0	26.688867568969727	3.4871842861175537	-840.8182983398438	-0.0	-0.0	-0.0	-0.0	-0.0	-0.0	-0.0	-0.0	-0.0	-0.0	-0.0	-0.0
0.787	-0.0	-0.0	-0.0	27.04209899902344	3.7694191932678223	-845.9107055664062	-0.0	-0.0	-0.0	-0.0	-0.0	-0.0	-0.0	-0.0	-0.0	-0.0	-0.0	-0.0
0.7875	-0.0	-0.0	-0.0	26.84953498840332	3.821085214614868	-850.457275390625	-0.0	-0.0	-0.0	-0.0	-0.0	-0.0	-0.0	-0.0	-0.0	-0.0	-0.0	-0.0
0.788	-0.0	-0.0	-0.0	26.049468994140625	3.705969095230103	-855.5599975585938	-0.0	-0.0	-0.0	-0.0	-0.0	-0.0	-0.0	-0.0	-0.0	-0.0	-0.0	-0.0
0.7885	-0.0	-0.0	-0.0	25.922571182250977	3.703914642333984	-860.8487548828125	-0.0	-0.0	-0.0	-0.0	-0.0	-0.0	-0.0	-0.0	-0.0	-0.0	-0.0	-0.0
0.789	-0.0	-0.0	-0.0	25.768234252929688	3.335594892501831	-866.4042358398438	-0.0	-0.0	-0.0	-0.0	-0.0	-0.0	-0.0	-0.0	-0.0	-0.0	-0.0	-0.0
0.7895	-0.0	-0.0	-0.0	25.28451538085937	2.8265609741210938	-874.120361328125	-0.0	-0.0	-0.0	-0.0	-0.0	-0.0	-0.0	-0.0	-0.0	-0.0	-0.0	-0.0
0.79	-0.0	-0.0	-0.0	24.06178855895996	2.3299036026000977	-882.74951171875	-0.0	-0.0	-0.0	-0.0	-0.0	-0.0	-0.0	-0.0	-0.0	-0.0	-0.0	-0.0
0.7905	-0.0	-0.0	-0.0	22.64666748046875	2.623053550720215	-891.3256225585938	-0.0	-0.0	-0.0	-0.0	-0.0	-0.0	-0.0	-0.0	-0.0	-0.0	-0.0	-0.0
0.791	-0.0	-0.0	-0.0	20.64596939086914	2.40652084350586	-900.60888671875	-0.0	-0.0	-0.0	-0.0	-0.0	-0.0	-0.0	-0.0	-0.0	-0.0	-0.0	-0.0
0.7915	-0.0	-0.0	-0.0	19.549339294433597	1.8586260080337524	-909.3344116210938	-0.0	-0.0	-0.0	-0.0	-0.0	-0.0	-0.0	-0.0	-0.0	-0.0	-0.0	-0.0
0.792	-0.0	-0.0	-0.0	18.530481338500977	0.903298556804657	-918.5735473632812	-0.0	-0.0	-0.0	-0.0	-0.0	-0.0	-0.0	-0.0	-0.0	-0.0	-0.0	-0.0
0.7925	-0.0	-0.0	-0.0	18.12325096130371	0.5482874512672424	-926.3909912109376	-0.0	-0.0	-0.0	-0.0	-0.0	-0.0	-0.0	-0.0	-0.0	-0.0	-0.0	-0.0
0.793	-0.0	-0.0	-0.0	17.473777770996094	0.1394311040639877	-934.2605590820312	-0.0	-0.0	-0.0	-0.0	-0.0	-0.0	-0.0	-0.0	-0.0	-0.0	-0.0	-0.0
0.7935	-0.0	-0.0	-0.0	16.92489242553711	-0.3426364660263061	-938.8410034179688	-0.0	-0.0	-0.0	-0.0	-0.0	-0.0	-0.0	-0.0	-0.0	-0.0	-0.0	-0.0
0.794	-0.0	-0.0	-0.0	15.843523979187012	-1.4401899576187134	-947.9349365234376	-0.0	-0.0	-0.0	-0.0	-0.0	-0.0	-0.0	-0.0	-0.0	-0.0	-0.0	-0.0
0.7945	-0.0	-0.0	-0.0	14.555603981018066	-2.2033090591430664	-952.1307983398438	-0.0	-0.0	-0.0	-0.0	-0.0	-0.0	-0.0	-0.0	-0.0	-0.0	-0.0	-0.0
0.795	-0.0	-0.0	-0.0	13.539179801940918	-2.381638288497925	-958.472900390625	-0.0	-0.0	-0.0	-0.0	-0.0	-0.0	-0.0	-0.0	-0.0	-0.0	-0.0	-0.0
0.7955	-0.0	-0.0	-0.0	11.75095558166504	-2.1189124584198	-963.769775390625	-0.0	-0.0	-0.0	-0.0	-0.0	-0.0	-0.0	-0.0	-0.0	-0.0	-0.0	-0.0
0.796	-0.0	-0.0	-0.0	10.938233375549316	-1.2725772857666016	-971.6961059570312	-0.0	-0.0	-0.0	-0.0	-0.0	-0.0	-0.0	-0.0	-0.0	-0.0	-0.0	-0.0
0.7965	-0.0	-0.0	-0.0	9.575738906860352	-0.6143275499343872	-978.0530395507812	-0.0	-0.0	-0.0	-0.0	-0.0	-0.0	-0.0	-0.0	-0.0	-0.0	-0.0	-0.0
0.797	-0.0	-0.0	-0.0	7.782519340515137	0.0645098835229873	-982.193359375	-0.0	-0.0	-0.0	-0.0	-0.0	-0.0	-0.0	-0.0	-0.0	-0.0	-0.0	-0.0
0.7975	-0.0	-0.0	-0.0	6.300285339355469	0.8576735258102417	-986.8460693359376	-0.0	-0.0	-0.0	-0.0	-0.0	-0.0	-0.0	-0.0	-0.0	-0.0	-0.0	-0.0
0.798	-0.0	-0.0	-0.0	5.044791221618652	1.4348737001419067	-990.5453491210938	-0.0	-0.0	-0.0	-0.0	-0.0	-0.0	-0.0	-0.0	-0.0	-0.0	-0.0	-0.0
0.7985	-0.0	-0.0	-0.0	3.925262451171875	1.3857975006103516	-994.0419311523438	-0.0	-0.0	-0.0	-0.0	-0.0	-0.0	-0.0	-0.0	-0.0	-0.0	-0.0	-0.0
0.799	-0.0	-0.0	-0.0	2.781613111495972	2.495164394378662	-995.8072509765624	-0.0	-0.0	-0.0	-0.0	-0.0	-0.0	-0.0	-0.0	-0.0	-0.0	-0.0	-0.0
0.7995	-0.0	-0.0	-0.0	2.619716167449951	2.114849805831909	-995.5496826171876	-0.0	-0.0	-0.0	-0.0	-0.0	-0.0	-0.0	-0.0	-0.0	-0.0	-0.0	-0.0
0.8	-0.0	-0.0	-0.0	1.8326971530914309	1.564612627029419	-996.1593627929688	-0.0	-0.0	-0.0	-0.0	-0.0	-0.0	-0.0	-0.0	-0.0	-0.0	-0.0	-0.0
0.8005	-0.0	-0.0	-0.0	1.8250794410705569	1.3294907808303833	-995.6507568359376	-0.0	-0.0	-0.0	-0.0	-0.0	-0.0	-0.0	-0.0	-0.0	-0.0	-0.0	-0.0
0.801	-0.0	-0.0	-0.0	1.1428627967834473	1.2165032625198364	-993.98193359375	-0.0	-0.0	-0.0	-0.0	-0.0	-0.0	-0.0	-0.0	-0.0	-0.0	-0.0	-0.0
0.8015	-0.0	-0.0	-0.0	0.3017909526824951	0.8773887157440186	-992.8563842773438	-0.0	-0.0	-0.0	-0.0	-0.0	-0.0	-0.0	-0.0	-0.0	-0.0	-0.0	-0.0
0.802	-0.0	-0.0	-0.0	-0.8508360981941223	0.3498550653457641	-991.02294921875	-0.0	-0.0	-0.0	-0.0	-0.0	-0.0	-0.0	-0.0	-0.0	-0.0	-0.0	-0.0
0.8025	-0.0	-0.0	-0.0	-2.343385934829712	0.8021736145019531	-993.5643920898438	-0.0	-0.0	-0.0	-0.0	-0.0	-0.0	-0.0	-0.0	-0.0	-0.0	-0.0	-0.0
0.803	-0.0	-0.0	-0.0	-4.127527713775635	0.4994583129882812	-991.4005126953124	-0.0	-0.0	-0.0	-0.0	-0.0	-0.0	-0.0	-0.0	-0.0	-0.0	-0.0	-0.0
0.8035	-0.0	-0.0	-0.0	-5.1742095947265625	0.8259236216545105	-990.669677734375	-0.0	-0.0	-0.0	-0.0	-0.0	-0.0	-0.0	-0.0	-0.0	-0.0	-0.0	-0.0
0.804	-0.0	-0.0	-0.0	-6.042601585388184	0.8495575189590454	-991.54150390625	-0.0	-0.0	-0.0	-0.0	-0.0	-0.0	-0.0	-0.0	-0.0	-0.0	-0.0	-0.0
0.8045	-0.0	-0.0	-0.0	-7.005700588226318	1.093183994293213	-987.3251342773438	-0.0	-0.0	-0.0	-0.0	-0.0	-0.0	-0.0	-0.0	-0.0	-0.0	-0.0	-0.0
0.805	-0.0	-0.0	-0.0	-7.6013569831848145	0.2909522950649261	-986.5980224609376	-0.0	-0.0	-0.0	-0.0	-0.0	-0.0	-0.0	-0.0	-0.0	-0.0	-0.0	-0.0
0.8055	-0.0	-0.0	-0.0	-7.653435230255127	-0.2438984215259552	-987.84423828125	-0.0	-0.0	-0.0	-0.0	-0.0	-0.0	-0.0	-0.0	-0.0	-0.0	-0.0	-0.0
0.806	-0.0	-0.0	-0.0	-7.836191177368164	-0.8678839802742004	-985.2972412109376	-0.0	-0.0	-0.0	-0.0	-0.0	-0.0	-0.0	-0.0	-0.0	-0.0	-0.0	-0.0
0.8065	-0.0	-0.0	-0.0	-7.967437744140625	-1.2988649606704712	-985.0359497070312	-0.0	-0.0	-0.0	-0.0	-0.0	-0.0	-0.0	-0.0	-0.0	-0.0	-0.0	-0.0
0.807	-0.0	-0.0	-0.0	-8.45168399810791	-2.092542886734009	-983.9752807617188	-0.0	-0.0	-0.0	-0.0	-0.0	-0.0	-0.0	-0.0	-0.0	-0.0	-0.0	-0.0
0.8075	-0.0	-0.0	-0.0	-9.010261535644531	-2.805731773376465	-984.3125	-0.0	-0.0	-0.0	-0.0	-0.0	-0.0	-0.0	-0.0	-0.0	-0.0	-0.0	-0.0
0.808	-0.0	-0.0	-0.0	-10.35194206237793	-2.9448227882385254	-983.0833129882812	-0.0	-0.0	-0.0	-0.0	-0.0	-0.0	-0.0	-0.0	-0.0	-0.0	-0.0	-0.0
0.8085	-0.0	-0.0	-0.0	-11.93432903289795	-2.588009834289551	-984.8486328125	-0.0	-0.0	-0.0	-0.0	-0.0	-0.0	-0.0	-0.0	-0.0	-0.0	-0.0	-0.0
0.809	-0.0	-0.0	-0.0	-13.74141788482666	-2.5617499351501465	-982.5584106445312	-0.0	-0.0	-0.0	-0.0	-0.0	-0.0	-0.0	-0.0	-0.0	-0.0	-0.0	-0.0
0.8095	-0.0	-0.0	-0.0	-16.72833251953125	-1.8892570734024048	-982.3753662109376	-0.0	-0.0	-0.0	-0.0	-0.0	-0.0	-0.0	-0.0	-0.0	-0.0	-0.0	-0.0
0.81	-0.0	-0.0	-0.0	-18.98136138916016	-0.491432785987854	-983.2529296875	-0.0	-0.0	-0.0	-0.0	-0.0	-0.0	-0.0	-0.0	-0.0	-0.0	-0.0	-0.0
0.8105	-0.0	-0.0	-0.0	-21.456228256225582	-0.1347950100898742	-982.012451171875	-0.0	-0.0	-0.0	-0.0	-0.0	-0.0	-0.0	-0.0	-0.0	-0.0	-0.0	-0.0
0.811	-0.0	-0.0	-0.0	-21.74843406677246	1.001272678375244	-980.2547607421876	-0.0	-0.0	-0.0	-0.0	-0.0	-0.0	-0.0	-0.0	-0.0	-0.0	-0.0	-0.0
0.8115	-0.0	-0.0	-0.0	-22.012285232543945	0.7811170220375061	-976.7223510742188	-0.0	-0.0	-0.0	-0.0	-0.0	-0.0	-0.0	-0.0	-0.0	-0.0	-0.0	-0.0
0.812	-0.0	-0.0	-0.0	-21.85657501220703	1.0469316244125366	-978.1290893554688	-0.0	-0.0	-0.0	-0.0	-0.0	-0.0	-0.0	-0.0	-0.0	-0.0	-0.0	-0.0
0.8125	-0.0	-0.0	-0.0	-21.053680419921875	0.9353135228157043	-976.1043701171876	-0.0	-0.0	-0.0	-0.0	-0.0	-0.0	-0.0	-0.0	-0.0	-0.0	-0.0	-0.0
0.8130000000000001	-0.0	-0.0	-0.0	-19.35692405700684	-0.1098767071962356	-977.7769165039062	-0.0	-0.0	-0.0	-0.0	-0.0	-0.0	-0.0	-0.0	-0.0	-0.0	-0.0	-0.0
0.8135	-0.0	-0.0	-0.0	-18.04237174987793	-0.2231283783912658	-977.8639526367188	-0.0	-0.0	-0.0	-0.0	-0.0	-0.0	-0.0	-0.0	-0.0	-0.0	-0.0	-0.0
0.8140000000000001	-0.0	-0.0	-0.0	-16.50425910949707	-1.003109097480774	-977.9552001953124	-0.0	-0.0	-0.0	-0.0	-0.0	-0.0	-0.0	-0.0	-0.0	-0.0	-0.0	-0.0
0.8145	-0.0	-0.0	-0.0	-15.745532989501951	-2.250481605529785	-980.0743408203124	-0.0	-0.0	-0.0	-0.0	-0.0	-0.0	-0.0	-0.0	-0.0	-0.0	-0.0	-0.0
0.8150000000000001	-0.0	-0.0	-0.0	-14.853645324707031	-2.8521728515625	-982.45849609375	-0.0	-0.0	-0.0	-0.0	-0.0	-0.0	-0.0	-0.0	-0.0	-0.0	-0.0	-0.0
0.8155	-0.0	-0.0	-0.0	-14.69706916809082	-3.2313389778137207	-984.5740356445312	-0.0	-0.0	-0.0	-0.0	-0.0	-0.0	-0.0	-0.0	-0.0	-0.0	-0.0	-0.0
0.8160000000000001	-0.0	-0.0	-0.0	-14.273681640625	-3.342747449874878	-985.6376342773438	-0.0	-0.0	-0.0	-0.0	-0.0	-0.0	-0.0	-0.0	-0.0	-0.0	-0.0	-0.0
0.8165	-0.0	-0.0	-0.0	-14.564371109008787	-3.364924192428589	-988.8204956054688	-0.0	-0.0	-0.0	-0.0	-0.0	-0.0	-0.0	-0.0	-0.0	-0.0	-0.0	-0.0
0.8170000000000001	-0.0	-0.0	-0.0	-14.740486145019531	-3.074379205703736	-988.5506591796876	-0.0	-0.0	-0.0	-0.0	-0.0	-0.0	-0.0	-0.0	-0.0	-0.0	-0.0	-0.0
0.8175	-0.0	-0.0	-0.0	-14.7212495803833	-2.9662346839904785	-987.850341796875	-0.0	-0.0	-0.0	-0.0	-0.0	-0.0	-0.0	-0.0	-0.0	-0.0	-0.0	-0.0
0.8180000000000001	-0.0	-0.0	-0.0	-14.697883605957031	-2.1845972537994385	-988.4641723632812	-0.0	-0.0	-0.0	-0.0	-0.0	-0.0	-0.0	-0.0	-0.0	-0.0	-0.0	-0.0
0.8185	-0.0	-0.0	-0.0	-15.500836372375488	-1.937057614326477	-991.3922119140624	-0.0	-0.0	-0.0	-0.0	-0.0	-0.0	-0.0	-0.0	-0.0	-0.0	-0.0	-0.0
0.8190000000000001	-0.0	-0.0	-0.0	-15.409380912780762	-2.630502462387085	-991.2901000976562	-0.0	-0.0	-0.0	-0.0	-0.0	-0.0	-0.0	-0.0	-0.0	-0.0	-0.0	-0.0
0.8195	-0.0	-0.0	-0.0	-15.319951057434082	-2.4255502223968506	-993.1317138671876	-0.0	-0.0	-0.0	-0.0	-0.0	-0.0	-0.0	-0.0	-0.0	-0.0	-0.0	-0.0
0.8200000000000001	-0.0	-0.0	-0.0	-15.00895881652832	-2.228260040283203	-994.64013671875	-0.0	-0.0	-0.0	-0.0	-0.0	-0.0	-0.0	-0.0	-0.0	-0.0	-0.0	-0.0
0.8205	-0.0	-0.0	-0.0	-14.54131317138672	-2.2712621688842773	-994.6275024414062	-0.0	-0.0	-0.0	-0.0	-0.0	-0.0	-0.0	-0.0	-0.0	-0.0	-0.0	-0.0
